<?xml version="1.0" encoding="utf-8"?>
<!-- Generator: Adobe Illustrator 28.2.0, SVG Export Plug-In . SVG Version: 6.00 Build 0)  -->
<svg version="1.1" id="Layer_1" xmlns="http://www.w3.org/2000/svg" xmlns:xlink="http://www.w3.org/1999/xlink" x="0px" y="0px"
	 viewBox="0 0 740.3 740.3" style="enable-background:new 0 0 740.3 740.3;" xml:space="preserve">
<style type="text/css">
	.st0{fill:#FFFFFF;}
	.st1{fill:#FF3ED4;}
</style>
<g>
	<path class="st0" d="M52.5,476.48c0-5.32,4.31-9.64,9.64-9.64h91.55c5.32,0,9.64,4.31,9.64,9.64v144.55c0,5.32-4.31,9.64-9.64,9.64
		H62.13c-5.32,0-9.64-4.31-9.64-9.64V476.48z"/>
	<path d="M72.21,491.43l9.8-10.3c2.47-2.64,1.11-3.13-0.95-3.13v-0.91h8.24v0.91c-1.15,0-2.1,0.25-4.61,2.88l-8.98,9.47l10.55,13.92
		c1.77,2.35,2.6,2.8,3.62,2.8v0.91h-9.47v-0.91c2.51,0,2.6-1.07,1.57-2.39l-9.76-12.89V491.43z M67.47,481.09
		c0-2.92-0.74-3.09-2.88-3.09v-0.91H74.6v0.91c-2.31,0-3.17,0.16-3.17,3.09V504c0,2.84,0.87,3.09,3.17,3.09v0.91H64.59v-0.91
		c2.14,0,2.88-0.25,2.88-3.09V481.09z"/>
	<path class="st1" d="M137.65,620.03c4.08-6.25,9.33-11.6,15.77-16.02c-6.44-4.43-11.69-9.77-15.77-16.02
		c-4.08,6.25-9.33,11.6-15.77,16.02C128.33,608.44,133.57,613.78,137.65,620.03z"/>
	<path d="M109.94,507.45c-0.11,0-0.23,0-0.34,0c-1.5,0.11-2.77,1.17-3.12,2.63c0,0-0.76,3.14-2.25,6.15
		c-0.74,1.5-1.68,2.92-2.56,3.81c-0.87,0.87-1.5,1.14-2.14,1.14c-4.8,0-7.2-4.91-7.2-4.91c-0.7-1.45-2.29-2.23-3.85-1.86
		c-1.57,0.35-2.68,1.74-2.68,3.34v24.02c0,0.01,0,0.03,0,0.04c-2.14,2.84-3.43,6.35-3.43,10.26v17.16h-1.72
		c-6.64,0-12.01,5.38-12.01,12.01c0,6.64,5.38,12.01,12.01,12.01c0.51,0,1.07-0.03,1.64-0.07c0.23,0,0.43,0.07,0.67,0.07h2.84
		c13.24,0,24.02-10.78,24.02-24.02V552.3c0-5.74,4.6-10.39,10.3-10.54h8.18l7.8,15.62l-3.79,1.9c-0.01,0.01-0.03,0.01-0.05,0.03
		c-2.57,1.09-5.17,4.32-6.03,5.72c-1.54,1.89-3.1,1.89-4.02,1.89c-0.97,0-1.15-0.94-1.18-1.13c-0.03-0.09-0.13-0.98,0.55-1.18
		c0.54-0.16,0.87-0.7,0.8-1.26c-0.09-0.56-0.58-0.98-1.14-0.98c-2.37,0-4.54,1.89-4.54,3.98c0,2.33,1.68,6.29,8,6.29
		c2.02,0,3.98-0.39,5.72-1.03v2.87c-1.01,1.03-5.12,5.03-13.73,5.03c-1.23-0.01-2.39,0.63-3.02,1.7c-0.62,1.07-0.62,2.39,0,3.46
		c0.63,1.07,1.78,1.72,3.02,1.7c12.56,0,19.73-8.04,19.73-8.04c0.55-0.62,0.86-1.42,0.86-2.25v-11.61l4.97-2.48
		c1.69-0.84,2.37-2.91,1.53-4.61l-9.93-19.85v-19.79c0-1.6-1.11-2.99-2.68-3.34c-1.56-0.36-3.15,0.42-3.85,1.86
		c0,0-2.4,4.91-7.2,4.91c-0.64,0-1.27-0.27-2.14-1.14c-0.88-0.88-1.82-2.31-2.56-3.81c-1.49-3.02-2.25-6.15-2.25-6.15
		C112.79,508.58,111.48,507.5,109.94,507.45z M109.81,520.09c0.88,1.65,1.85,3.35,3.31,4.8c1.7,1.7,4.12,3.15,6.98,3.15
		c2.8,0,4.97-0.88,6.86-2.01v8.87H99.79c-2.56,0-4.96,0.55-7.13,1.49v-10.36c1.89,1.13,4.06,2.01,6.86,2.01
		c2.87,0,5.28-1.45,6.98-3.15C107.96,523.44,108.93,521.74,109.81,520.09z M123.54,548.63c-1.89,0-3.43,1.54-3.43,3.43
		c0,1.89,1.54,3.43,3.43,3.43s3.43-1.54,3.43-3.43C126.97,550.17,125.43,548.63,123.54,548.63z"/>
</g>
<g>
	<path class="st0" d="M52.5,297.41c0-5.32,4.31-9.64,9.64-9.64h91.55c5.32,0,9.64,4.31,9.64,9.64v144.55c0,5.32-4.31,9.64-9.64,9.64
		H62.13c-5.32,0-9.64-4.31-9.64-9.64V297.41z"/>
	<path class="st1" d="M137.65,440.96c4.08-6.25,9.33-11.6,15.77-16.02c-6.44-4.43-11.69-9.77-15.77-16.02
		c-4.08,6.25-9.33,11.6-15.77,16.02C128.33,429.36,133.57,434.71,137.65,440.96z"/>
	<path d="M78.45,327.6c4.7,0,8.44-4.28,8.44-11.62c0-8.61-3.54-16.64-10.05-16.64c-4.94,0-8.53,4.33-8.53,11.66
		C68.31,319.45,71.57,327.6,78.45,327.6z M90.39,334.77c-6.14,0-10.05-1.94-13.18-5.35c-7.66-0.29-13.06-7.04-13.06-15.9
		c0-9.31,5.89-15.98,13.51-15.98c7.58,0,13.39,6.92,13.39,15.98c0,7.62-3.91,13.47-9.56,15.28c2.84,2.97,6.1,4.78,9.89,5.07v0.91
		H90.39z"/>
	<path d="M112.87,333.29c-1.47,0.05-2.73,1.01-3.18,2.42c0,0-0.45,1.32-1.28,2.6c-0.82,1.27-1.66,1.91-2.34,1.91
		c-3.03,0-4-1.85-4-1.85c-0.82-1.3-2.41-1.89-3.88-1.46c-1.49,0.42-2.5,1.77-2.5,3.31v16.34c-9.42,4.16-16.14,13.3-18.44,25.91
		l-1.18,6.42c0.2,0,0.38-0.05,0.58-0.05c8.58,0,15.57,6.99,15.57,15.57c0,1.92-1.55,3.46-3.46,3.46c-1.92,0-3.46-1.54-3.46-3.46
		c0-4.77-3.89-8.65-8.65-8.65c-4.16,0-7.65,2.96-8.47,6.87c0,0.08-0.01,0.15-0.01,0.22c-0.08,0.39-0.11,0.78-0.12,1.19
		c-0.03,2.7,0.84,5.37,2.55,7.57c2.3,2.97,5.77,4.74,9.3,4.74h8.87c11.45,0,20.76-9.31,20.76-20.76v-17.3
		c0-8.88,6.73-16.22,15.35-17.19l10.98,19.19l-3.66,1.82c-1.16,0.58-1.91,1.78-1.91,3.1v10.92c-3.58,0.43-10.54,1.65-16.29,7.39
		c-0.91,0.87-1.27,2.16-0.95,3.37c0.31,1.22,1.26,2.16,2.47,2.47c1.2,0.32,2.5-0.04,3.37-0.95c4.66-4.66,15.12-5.92,15.12-5.92
		c1.8-0.14,3.19-1.64,3.19-3.45v-11.71l5.01-2.5c0.84-0.42,1.49-1.18,1.76-2.1c0.28-0.91,0.16-1.89-0.3-2.72l-13.39-23.42v-16.38
		c0-1.54-1.01-2.89-2.5-3.31c-1.47-0.43-3.05,0.16-3.88,1.46c0,0-0.97,1.85-4,1.85c-0.68,0-1.51-0.64-2.34-1.91
		c-0.84-1.27-1.28-2.6-1.28-2.6C115.81,334.22,114.42,333.24,112.87,333.29z M112.99,343.41c1.54,1.85,3.66,3.72,6.92,3.72
		c1.51,0,2.28-0.77,3.46-1.19v8.11h-15.53c-1.8,0-3.54,0.16-5.23,0.43v-8.54c1.18,0.42,1.95,1.19,3.46,1.19
		C109.33,347.13,111.45,345.27,112.99,343.41z M123.37,371.35c-1.91,0-3.46,1.55-3.46,3.46c0,1.91,1.55,3.46,3.46,3.46
		c1.91,0,3.46-1.55,3.46-3.46C126.83,372.91,125.27,371.35,123.37,371.35z"/>
</g>
<g>
	<path class="st0" d="M52.5,118.34c0-5.32,4.31-9.64,9.64-9.64h91.55c5.32,0,9.64,4.31,9.64,9.64v144.55c0,5.32-4.31,9.64-9.64,9.64
		H62.13c-5.32,0-9.64-4.31-9.64-9.64V118.34z"/>
	<path class="st1" d="M137.65,261.89c4.08-6.25,9.33-11.6,15.77-16.02c-6.44-4.43-11.69-9.77-15.77-16.02
		c-4.08,6.25-9.33,11.6-15.77,16.02C128.33,250.29,133.57,255.64,137.65,261.89z"/>
	<path d="M79.98,140.66c0,6.26-3.54,9.68-8.32,9.68c-4.2,0-7.5-2.47-7.5-5.73c0-1.81,0.95-2.68,2.31-2.68
		c1.52,0,2.06,1.19,2.22,3.05c0.33,2.76,1.28,3.67,3.5,3.67c2.43,0,3.79-2.27,3.79-7.13v-18.58c0-2.88-0.78-3.09-3.09-3.09v-0.91
		h9.72v0.91c-1.98,0-2.64,0.21-2.64,3.09V140.66z"/>
	<path d="M83.56,157.81c-1.17,0-2.26,0.61-2.88,1.6c-0.61,1-0.67,2.24-0.15,3.3l6.76,13.51c0.15,0.29,0.33,0.55,0.55,0.81
		c-2.65,2.96-4.29,6.84-4.29,11.19v16.89h-1.69c-6.53,0-11.82,5.29-11.82,11.82c0,6.53,5.29,11.82,11.82,11.82
		c0.5,0,1.06-0.03,1.61-0.07c0.22,0,0.42,0.07,0.66,0.07h2.8c13.04,0,23.65-10.61,23.65-23.65v-16.66c0-5.65,4.53-10.23,10.14-10.37
		h4.96l10.39,15.57l-3.35,1.68c-1.13,0.57-1.86,1.74-1.86,3.02v11.94c-0.99,1.02-5.04,4.95-13.51,4.95
		c-1.21-0.01-2.35,0.62-2.97,1.68c-0.61,1.06-0.61,2.35,0,3.4c0.62,1.06,1.76,1.69,2.97,1.68c12.37,0,19.43-7.92,19.43-7.92
		c0.54-0.61,0.84-1.4,0.84-2.22v-11.43l4.9-2.44c0.86-0.44,1.5-1.21,1.74-2.15c0.25-0.94,0.09-1.94-0.45-2.75l-12.42-18.66
		l5.87-11.73c0.53-1.06,0.46-2.3-0.15-3.3c-0.62-0.99-1.7-1.6-2.88-1.6H83.56z M89.02,164.57h39.75l-3.38,6.76H92.4L89.02,164.57z
		 M124.1,184.84c-1.86,0-3.38,1.52-3.38,3.38c0,1.86,1.52,3.38,3.38,3.38c1.86,0,3.38-1.52,3.38-3.38
		C127.48,186.36,125.96,184.84,124.1,184.84z"/>
</g>
<g>
	<path class="st0" d="M230.36,476.36c0-5.32,4.31-9.64,9.64-9.64h91.55c5.32,0,9.64,4.31,9.64,9.64v144.55
		c0,5.32-4.31,9.64-9.64,9.64H240c-5.32,0-9.64-4.31-9.64-9.64V476.36z"/>
	<g>
		<path d="M318.87,619.91c-1.71-2.96-2.6-6.31-2.6-9.73v-9.03h-1.48v9.04c0,3.41-0.9,6.76-2.6,9.71L318.87,619.91L318.87,619.91z"/>
		<path d="M315.52,610.58c-0.99,2.57-3.57,4.4-6.59,4.4c-3.87,0-6.9-3.91-7.03-7.58c-0.26-7.36,13.05-18.72,13.61-19.12
			c0.57,0.39,13.87,11.75,13.61,19.12c-0.13,3.68-3.15,7.58-7.03,7.58C319.09,614.98,316.51,613.15,315.52,610.58L315.52,610.58z"/>
	</g>
	<path d="M250.07,491.43l9.8-10.3c2.47-2.64,1.11-3.13-0.95-3.13v-0.91h8.24v0.91c-1.15,0-2.1,0.25-4.61,2.88l-8.98,9.47
		l10.55,13.92c1.77,2.35,2.6,2.8,3.62,2.8v0.91h-9.47v-0.91c2.51,0,2.6-1.07,1.57-2.39l-9.76-12.89V491.43z M245.34,481.09
		c0-2.92-0.74-3.09-2.88-3.09v-0.91h10.01v0.91c-2.31,0-3.17,0.16-3.17,3.09V504c0,2.84,0.87,3.09,3.17,3.09v0.91h-10.01v-0.91
		c2.14,0,2.88-0.25,2.88-3.09V481.09z"/>
	<path d="M287.8,507.45c-0.11,0-0.23,0-0.34,0c-1.5,0.11-2.77,1.17-3.12,2.63c0,0-0.76,3.14-2.25,6.15
		c-0.74,1.5-1.68,2.92-2.56,3.81c-0.87,0.87-1.5,1.14-2.14,1.14c-4.8,0-7.2-4.91-7.2-4.91c-0.7-1.45-2.29-2.23-3.85-1.86
		c-1.57,0.35-2.68,1.74-2.68,3.34v24.02c0,0.01,0,0.03,0,0.04c-2.14,2.84-3.43,6.35-3.43,10.26v17.16h-1.72
		c-6.64,0-12.01,5.38-12.01,12.01c0,6.64,5.38,12.01,12.01,12.01c0.51,0,1.07-0.03,1.64-0.07c0.23,0,0.43,0.07,0.67,0.07h2.84
		c13.24,0,24.02-10.78,24.02-24.02V552.3c0-5.74,4.6-10.39,10.3-10.54h8.18l7.8,15.62l-3.79,1.9c-0.01,0.01-0.03,0.01-0.05,0.03
		c-2.57,1.09-5.17,4.32-6.03,5.72c-1.54,1.89-3.1,1.89-4.02,1.89c-0.97,0-1.15-0.94-1.18-1.13c-0.03-0.09-0.13-0.98,0.55-1.18
		c0.54-0.16,0.87-0.7,0.8-1.26c-0.09-0.56-0.58-0.98-1.14-0.98c-2.37,0-4.54,1.89-4.54,3.98c0,2.33,1.68,6.29,8,6.29
		c2.02,0,3.98-0.39,5.72-1.03v2.87c-1.01,1.03-5.12,5.03-13.73,5.03c-1.23-0.01-2.39,0.63-3.02,1.7c-0.62,1.07-0.62,2.39,0,3.46
		c0.63,1.07,1.78,1.72,3.02,1.7c12.56,0,19.73-8.04,19.73-8.04c0.55-0.62,0.86-1.42,0.86-2.25v-11.61l4.97-2.48
		c1.69-0.84,2.37-2.91,1.53-4.61l-9.93-19.85v-19.79c0-1.6-1.11-2.99-2.68-3.34c-1.56-0.36-3.15,0.42-3.85,1.86
		c0,0-2.4,4.91-7.2,4.91c-0.64,0-1.27-0.27-2.14-1.14c-0.88-0.88-1.82-2.31-2.56-3.81c-1.49-3.02-2.25-6.15-2.25-6.15
		C290.66,508.58,289.34,507.5,287.8,507.45z M287.68,520.09c0.88,1.65,1.85,3.35,3.31,4.8c1.7,1.7,4.12,3.15,6.98,3.15
		c2.8,0,4.97-0.88,6.86-2.01v8.87h-27.19c-2.56,0-4.96,0.55-7.13,1.49v-10.36c1.89,1.13,4.06,2.01,6.86,2.01
		c2.87,0,5.28-1.45,6.98-3.15C285.83,523.44,286.8,521.74,287.68,520.09z M301.41,548.63c-1.89,0-3.43,1.54-3.43,3.43
		c0,1.89,1.54,3.43,3.43,3.43s3.43-1.54,3.43-3.43C304.84,550.17,303.3,548.63,301.41,548.63z"/>
</g>
<g>
	<path class="st0" d="M230.36,297.41c0-5.32,4.31-9.64,9.64-9.64h91.55c5.32,0,9.64,4.31,9.64,9.64v144.55
		c0,5.32-4.31,9.64-9.64,9.64H240c-5.32,0-9.64-4.31-9.64-9.64V297.41z"/>
	<g>
		<path d="M318.87,440.96c-1.71-2.96-2.6-6.31-2.6-9.73v-9.03h-1.48v9.04c0,3.41-0.9,6.76-2.6,9.71L318.87,440.96L318.87,440.96z"/>
		<path d="M315.52,431.64c-0.99,2.57-3.57,4.4-6.59,4.4c-3.87,0-6.9-3.91-7.03-7.58c-0.26-7.36,13.05-18.72,13.61-19.12
			c0.57,0.39,13.87,11.75,13.61,19.12c-0.13,3.68-3.15,7.58-7.03,7.58C319.09,436.04,316.51,434.2,315.52,431.64L315.52,431.64z"/>
	</g>
	<path d="M256.31,327.6c4.7,0,8.44-4.28,8.44-11.62c0-8.61-3.54-16.64-10.05-16.64c-4.94,0-8.53,4.33-8.53,11.66
		C246.18,319.45,249.43,327.6,256.31,327.6z M268.26,334.77c-6.14,0-10.05-1.94-13.18-5.35c-7.66-0.29-13.06-7.04-13.06-15.9
		c0-9.31,5.89-15.98,13.51-15.98c7.58,0,13.39,6.92,13.39,15.98c0,7.62-3.91,13.47-9.56,15.28c2.84,2.97,6.1,4.78,9.89,5.07v0.91
		H268.26z"/>
	<path d="M290.73,333.29c-1.47,0.05-2.73,1.01-3.18,2.42c0,0-0.45,1.32-1.28,2.6c-0.82,1.27-1.66,1.91-2.34,1.91
		c-3.03,0-4-1.85-4-1.85c-0.82-1.3-2.41-1.89-3.88-1.46c-1.49,0.42-2.5,1.77-2.5,3.31v16.34c-9.42,4.16-16.14,13.3-18.44,25.91
		l-1.18,6.42c0.2,0,0.38-0.05,0.58-0.05c8.58,0,15.57,6.99,15.57,15.57c0,1.92-1.55,3.46-3.46,3.46c-1.92,0-3.46-1.54-3.46-3.46
		c0-4.77-3.89-8.65-8.65-8.65c-4.16,0-7.65,2.96-8.47,6.87c0,0.08-0.01,0.15-0.01,0.22c-0.08,0.39-0.11,0.78-0.12,1.19
		c-0.03,2.7,0.84,5.37,2.55,7.57c2.3,2.97,5.77,4.74,9.3,4.74h8.87c11.45,0,20.76-9.31,20.76-20.76v-17.3
		c0-8.88,6.73-16.22,15.35-17.19l10.98,19.19l-3.66,1.82c-1.16,0.58-1.91,1.78-1.91,3.1v10.92c-3.58,0.43-10.54,1.65-16.29,7.39
		c-0.91,0.87-1.27,2.16-0.95,3.37c0.31,1.22,1.26,2.16,2.47,2.47c1.2,0.32,2.5-0.04,3.37-0.95c4.66-4.66,15.12-5.92,15.12-5.92
		c1.8-0.14,3.19-1.64,3.19-3.45v-11.71l5.01-2.5c0.84-0.42,1.49-1.18,1.76-2.1c0.28-0.91,0.16-1.89-0.3-2.72l-13.39-23.42v-16.38
		c0-1.54-1.01-2.89-2.5-3.31c-1.47-0.43-3.05,0.16-3.88,1.46c0,0-0.97,1.85-4,1.85c-0.68,0-1.51-0.64-2.34-1.91
		c-0.84-1.27-1.28-2.6-1.28-2.6C293.68,334.22,292.29,333.24,290.73,333.29z M290.85,343.41c1.54,1.85,3.66,3.72,6.92,3.72
		c1.51,0,2.28-0.77,3.46-1.19v8.11H285.7c-1.8,0-3.54,0.16-5.23,0.43v-8.54c1.18,0.42,1.95,1.19,3.46,1.19
		C287.19,347.13,289.31,345.27,290.85,343.41z M301.23,371.35c-1.91,0-3.46,1.55-3.46,3.46c0,1.91,1.55,3.46,3.46,3.46
		s3.46-1.55,3.46-3.46C304.69,372.91,303.14,371.35,301.23,371.35z"/>
</g>
<g>
	<path class="st0" d="M230.36,118.34c0-5.32,4.31-9.64,9.64-9.64h91.55c5.32,0,9.64,4.31,9.64,9.64v144.55
		c0,5.32-4.31,9.64-9.64,9.64H240c-5.32,0-9.64-4.31-9.64-9.64V118.34z"/>
	<g>
		<path d="M318.87,261.89c-1.71-2.96-2.6-6.31-2.6-9.73v-9.03h-1.48v9.04c0,3.41-0.9,6.76-2.6,9.71L318.87,261.89L318.87,261.89z"/>
		<path d="M315.52,252.56c-0.99,2.57-3.57,4.4-6.59,4.4c-3.87,0-6.9-3.91-7.03-7.58c-0.26-7.36,13.05-18.72,13.61-19.12
			c0.57,0.39,13.87,11.75,13.61,19.12c-0.13,3.68-3.15,7.58-7.03,7.58C319.09,256.96,316.51,255.13,315.52,252.56L315.52,252.56z"/>
	</g>
	<path d="M257.85,140.66c0,6.26-3.54,9.68-8.32,9.68c-4.2,0-7.5-2.47-7.5-5.73c0-1.81,0.95-2.68,2.31-2.68
		c1.52,0,2.06,1.19,2.22,3.05c0.33,2.76,1.28,3.67,3.5,3.67c2.43,0,3.79-2.27,3.79-7.13v-18.58c0-2.88-0.78-3.09-3.09-3.09v-0.91
		h9.72v0.91c-1.98,0-2.64,0.21-2.64,3.09V140.66z"/>
	<path d="M261.43,157.81c-1.17,0-2.26,0.61-2.88,1.6c-0.61,1-0.67,2.24-0.15,3.3l6.76,13.51c0.15,0.29,0.33,0.55,0.55,0.81
		c-2.65,2.96-4.29,6.84-4.29,11.19v16.89h-1.69c-6.53,0-11.82,5.29-11.82,11.82c0,6.53,5.29,11.82,11.82,11.82
		c0.5,0,1.06-0.03,1.61-0.07c0.22,0,0.42,0.07,0.66,0.07h2.8c13.04,0,23.65-10.61,23.65-23.65v-16.66c0-5.65,4.53-10.23,10.14-10.37
		h4.96l10.39,15.57l-3.35,1.68c-1.13,0.57-1.86,1.74-1.86,3.02v11.94c-0.99,1.02-5.04,4.95-13.51,4.95
		c-1.21-0.01-2.35,0.62-2.97,1.68c-0.61,1.06-0.61,2.35,0,3.4c0.62,1.06,1.76,1.69,2.97,1.68c12.37,0,19.43-7.92,19.43-7.92
		c0.54-0.61,0.84-1.4,0.84-2.22v-11.43l4.9-2.44c0.86-0.44,1.5-1.21,1.74-2.15c0.25-0.94,0.09-1.94-0.45-2.75l-12.42-18.66
		l5.87-11.73c0.53-1.06,0.46-2.3-0.15-3.3c-0.62-0.99-1.7-1.6-2.88-1.6H261.43z M266.89,164.57h39.75l-3.38,6.76h-32.99
		L266.89,164.57z M301.97,184.84c-1.86,0-3.38,1.52-3.38,3.38c0,1.86,1.52,3.38,3.38,3.38c1.86,0,3.38-1.52,3.38-3.38
		C305.35,186.36,303.83,184.84,301.97,184.84z"/>
</g>
<g>
	<path class="st0" d="M408.23,477.41c0-5.32,4.31-9.64,9.64-9.64h91.55c5.32,0,9.64,4.31,9.64,9.64v144.55
		c0,5.32-4.31,9.64-9.64,9.64h-91.55c-5.32,0-9.64-4.31-9.64-9.64V477.41z"/>
	<path class="st1" d="M493.39,597.88c1.1-2.9,3.95-4.97,7.29-4.97c4.29,0,7.63,4.41,7.77,8.56c0.29,8.31-14.43,18.12-15.06,18.56
		c-0.63-0.45-15.35-10.25-15.07-18.56c0.14-4.15,3.49-8.56,7.77-8.56C489.43,592.91,492.29,594.98,493.39,597.88z"/>
	<path d="M427.94,491.43l9.8-10.3c2.47-2.64,1.11-3.13-0.95-3.13v-0.91h8.24v0.91c-1.15,0-2.1,0.25-4.61,2.88l-8.98,9.47
		l10.55,13.92c1.77,2.35,2.6,2.8,3.62,2.8v0.91h-9.47v-0.91c2.51,0,2.6-1.07,1.57-2.39l-9.76-12.89V491.43z M423.2,481.09
		c0-2.92-0.74-3.09-2.88-3.09v-0.91h10.01v0.91c-2.31,0-3.17,0.16-3.17,3.09V504c0,2.84,0.87,3.09,3.17,3.09v0.91h-10.01v-0.91
		c2.14,0,2.88-0.25,2.88-3.09V481.09z"/>
	<path d="M465.67,507.45c-0.11,0-0.23,0-0.34,0c-1.5,0.11-2.77,1.17-3.12,2.63c0,0-0.76,3.14-2.25,6.15
		c-0.74,1.5-1.68,2.92-2.56,3.81c-0.87,0.87-1.5,1.14-2.14,1.14c-4.8,0-7.2-4.91-7.2-4.91c-0.7-1.45-2.29-2.23-3.85-1.86
		c-1.57,0.35-2.68,1.74-2.68,3.34v24.02c0,0.01,0,0.03,0,0.04c-2.14,2.84-3.43,6.35-3.43,10.26v17.16h-1.72
		c-6.64,0-12.01,5.38-12.01,12.01c0,6.64,5.38,12.01,12.01,12.01c0.51,0,1.07-0.03,1.64-0.07c0.23,0,0.43,0.07,0.67,0.07h2.84
		c13.24,0,24.02-10.78,24.02-24.02V552.3c0-5.74,4.6-10.39,10.3-10.54h8.18l7.8,15.62l-3.79,1.9c-0.01,0.01-0.03,0.01-0.05,0.03
		c-2.57,1.09-5.17,4.32-6.03,5.72c-1.54,1.89-3.1,1.89-4.02,1.89c-0.97,0-1.15-0.94-1.18-1.13c-0.03-0.09-0.13-0.98,0.55-1.18
		c0.54-0.16,0.87-0.7,0.8-1.26c-0.09-0.56-0.58-0.98-1.14-0.98c-2.37,0-4.54,1.89-4.54,3.98c0,2.33,1.68,6.29,8,6.29
		c2.02,0,3.98-0.39,5.72-1.03v2.87c-1.01,1.03-5.12,5.03-13.73,5.03c-1.23-0.01-2.39,0.63-3.02,1.7c-0.62,1.07-0.62,2.39,0,3.46
		c0.63,1.07,1.78,1.72,3.02,1.7c12.56,0,19.73-8.04,19.73-8.04c0.55-0.62,0.86-1.42,0.86-2.25v-11.61l4.97-2.48
		c1.69-0.84,2.37-2.91,1.53-4.61l-9.93-19.85v-19.79c0-1.6-1.11-2.99-2.68-3.34c-1.56-0.36-3.15,0.42-3.85,1.86
		c0,0-2.4,4.91-7.2,4.91c-0.64,0-1.27-0.27-2.14-1.14c-0.88-0.88-1.82-2.31-2.56-3.81c-1.49-3.02-2.25-6.15-2.25-6.15
		C468.52,508.58,467.21,507.5,465.67,507.45z M465.55,520.09c0.88,1.65,1.85,3.35,3.31,4.8c1.7,1.7,4.12,3.15,6.98,3.15
		c2.8,0,4.97-0.88,6.86-2.01v8.87h-27.19c-2.56,0-4.96,0.55-7.13,1.49v-10.36c1.89,1.13,4.06,2.01,6.86,2.01
		c2.87,0,5.28-1.45,6.98-3.15C463.7,523.44,464.66,521.74,465.55,520.09z M479.27,548.63c-1.89,0-3.43,1.54-3.43,3.43
		c0,1.89,1.54,3.43,3.43,3.43s3.43-1.54,3.43-3.43C482.71,550.17,481.16,548.63,479.27,548.63z"/>
</g>
<g>
	<path class="st0" d="M408.23,297.41c0-5.32,4.31-9.64,9.64-9.64h91.55c5.32,0,9.64,4.31,9.64,9.64v144.55
		c0,5.32-4.31,9.64-9.64,9.64h-91.55c-5.32,0-9.64-4.31-9.64-9.64V297.41z"/>
	<path class="st1" d="M493.39,417.88c1.1-2.9,3.95-4.97,7.29-4.97c4.29,0,7.63,4.41,7.77,8.56c0.29,8.31-14.43,18.12-15.06,18.56
		c-0.63-0.45-15.35-10.25-15.07-18.56c0.14-4.15,3.49-8.56,7.77-8.56C489.43,412.92,492.29,414.98,493.39,417.88z"/>
	<path d="M434.18,327.6c4.7,0,8.44-4.28,8.44-11.62c0-8.61-3.54-16.64-10.05-16.64c-4.94,0-8.53,4.33-8.53,11.66
		C424.05,319.45,427.3,327.6,434.18,327.6z M446.12,334.77c-6.14,0-10.05-1.94-13.18-5.35c-7.66-0.29-13.06-7.04-13.06-15.9
		c0-9.31,5.89-15.98,13.51-15.98c7.58,0,13.39,6.92,13.39,15.98c0,7.62-3.91,13.47-9.56,15.28c2.84,2.97,6.1,4.78,9.89,5.07v0.91
		H446.12z"/>
	<path d="M468.6,333.29c-1.47,0.05-2.73,1.01-3.18,2.42c0,0-0.45,1.32-1.28,2.6c-0.82,1.27-1.66,1.91-2.34,1.91
		c-3.03,0-4-1.85-4-1.85c-0.82-1.3-2.41-1.89-3.88-1.46c-1.49,0.42-2.5,1.77-2.5,3.31v16.34c-9.42,4.16-16.14,13.3-18.44,25.91
		l-1.18,6.42c0.2,0,0.38-0.05,0.58-0.05c8.58,0,15.57,6.99,15.57,15.57c0,1.92-1.55,3.46-3.46,3.46c-1.92,0-3.46-1.54-3.46-3.46
		c0-4.77-3.89-8.65-8.65-8.65c-4.16,0-7.65,2.96-8.47,6.87c0,0.08-0.01,0.15-0.01,0.22c-0.08,0.39-0.11,0.78-0.12,1.19
		c-0.03,2.7,0.84,5.37,2.55,7.57c2.3,2.97,5.77,4.74,9.3,4.74h8.87c11.45,0,20.76-9.31,20.76-20.76v-17.3
		c0-8.88,6.73-16.22,15.35-17.19l10.98,19.19l-3.66,1.82c-1.16,0.58-1.91,1.78-1.91,3.1v10.92c-3.58,0.43-10.54,1.65-16.29,7.39
		c-0.91,0.87-1.27,2.16-0.95,3.37c0.31,1.22,1.26,2.16,2.47,2.47c1.2,0.32,2.5-0.04,3.37-0.95c4.66-4.66,15.12-5.92,15.12-5.92
		c1.8-0.14,3.19-1.64,3.19-3.45v-11.71l5.01-2.5c0.84-0.42,1.49-1.18,1.76-2.1c0.28-0.91,0.16-1.89-0.3-2.72l-13.39-23.42v-16.38
		c0-1.54-1.01-2.89-2.5-3.31c-1.47-0.43-3.05,0.16-3.88,1.46c0,0-0.97,1.85-4,1.85c-0.68,0-1.51-0.64-2.34-1.91
		c-0.84-1.27-1.28-2.6-1.28-2.6C471.55,334.22,470.15,333.24,468.6,333.29z M468.72,343.41c1.54,1.85,3.66,3.72,6.92,3.72
		c1.51,0,2.28-0.77,3.46-1.19v8.11h-15.53c-1.8,0-3.54,0.16-5.23,0.43v-8.54c1.18,0.42,1.95,1.19,3.46,1.19
		C465.06,347.13,467.18,345.27,468.72,343.41z M479.1,371.35c-1.91,0-3.46,1.55-3.46,3.46c0,1.91,1.55,3.46,3.46,3.46
		c1.91,0,3.46-1.55,3.46-3.46C482.56,372.91,481.01,371.35,479.1,371.35z"/>
</g>
<g>
	<path class="st0" d="M408.23,118.34c0-5.32,4.31-9.64,9.64-9.64h91.55c5.32,0,9.64,4.31,9.64,9.64v144.55
		c0,5.32-4.31,9.64-9.64,9.64h-91.55c-5.32,0-9.64-4.31-9.64-9.64V118.34z"/>
	<path class="st1" d="M493.39,238.81c1.1-2.9,3.95-4.97,7.29-4.97c4.29,0,7.63,4.41,7.77,8.56c0.29,8.31-14.43,18.12-15.06,18.56
		c-0.63-0.45-15.35-10.25-15.07-18.56c0.14-4.15,3.49-8.56,7.77-8.56C489.43,233.84,492.29,235.91,493.39,238.81z"/>
	<path d="M435.71,140.66c0,6.26-3.54,9.68-8.32,9.68c-4.2,0-7.5-2.47-7.5-5.73c0-1.81,0.95-2.68,2.31-2.68
		c1.52,0,2.06,1.19,2.22,3.05c0.33,2.76,1.28,3.67,3.5,3.67c2.43,0,3.79-2.27,3.79-7.13v-18.58c0-2.88-0.78-3.09-3.09-3.09v-0.91
		h9.72v0.91c-1.98,0-2.64,0.21-2.64,3.09V140.66z"/>
	<path d="M439.29,157.81c-1.17,0-2.26,0.61-2.88,1.6c-0.61,1-0.67,2.24-0.15,3.3l6.76,13.51c0.15,0.29,0.33,0.55,0.55,0.81
		c-2.65,2.96-4.29,6.84-4.29,11.19v16.89h-1.69c-6.53,0-11.82,5.29-11.82,11.82c0,6.53,5.29,11.82,11.82,11.82
		c0.5,0,1.06-0.03,1.61-0.07c0.22,0,0.42,0.07,0.66,0.07h2.8c13.04,0,23.65-10.61,23.65-23.65v-16.66c0-5.65,4.53-10.23,10.14-10.37
		h4.96l10.39,15.57l-3.35,1.68c-1.13,0.57-1.86,1.74-1.86,3.02v11.94c-0.99,1.02-5.04,4.95-13.51,4.95
		c-1.21-0.01-2.35,0.62-2.97,1.68c-0.61,1.06-0.61,2.35,0,3.4c0.62,1.06,1.76,1.69,2.97,1.68c12.37,0,19.43-7.92,19.43-7.92
		c0.54-0.61,0.84-1.4,0.84-2.22v-11.43l4.9-2.44c0.86-0.44,1.5-1.21,1.74-2.15c0.25-0.94,0.09-1.94-0.45-2.75l-12.42-18.66
		l5.87-11.73c0.53-1.06,0.46-2.3-0.15-3.3c-0.62-0.99-1.7-1.6-2.88-1.6H439.29z M444.76,164.57h39.75l-3.38,6.76h-32.99
		L444.76,164.57z M479.83,184.84c-1.86,0-3.38,1.52-3.38,3.38c0,1.86,1.52,3.38,3.38,3.38c1.86,0,3.38-1.52,3.38-3.38
		C483.21,186.36,481.7,184.84,479.83,184.84z"/>
</g>
<g>
	<path class="st0" d="M586.09,476.36c0-5.32,4.31-9.64,9.64-9.64h91.55c5.32,0,9.64,4.31,9.64,9.64v144.55
		c0,5.32-4.31,9.64-9.64,9.64h-91.55c-5.32,0-9.64-4.31-9.64-9.64V476.36z"/>
	<g>
		<circle cx="662.88" cy="607.32" r="7.02"/>
		<circle cx="671.26" cy="594.88" r="7.02"/>
		<circle cx="679.63" cy="607.32" r="7.02"/>
		<rect x="661.77" y="606.51" width="18.97" height="1.62"/>
		<path d="M674.92,619.91c-1.87-3.25-2.86-6.93-2.86-10.68v-9.91h-1.62v9.93c0,3.74-0.99,7.42-2.86,10.66H674.92L674.92,619.91z"/>
	</g>
	<path d="M605.81,491.43l9.8-10.3c2.47-2.64,1.11-3.13-0.95-3.13v-0.91h8.24v0.91c-1.15,0-2.1,0.25-4.61,2.88l-8.98,9.47
		l10.55,13.92c1.77,2.35,2.6,2.8,3.62,2.8v0.91H614v-0.91c2.51,0,2.6-1.07,1.57-2.39l-9.76-12.89V491.43z M601.07,481.09
		c0-2.92-0.74-3.09-2.88-3.09v-0.91h10.01v0.91c-2.31,0-3.17,0.16-3.17,3.09V504c0,2.84,0.87,3.09,3.17,3.09v0.91h-10.01v-0.91
		c2.14,0,2.88-0.25,2.88-3.09V481.09z"/>
	<path d="M643.53,507.45c-0.11,0-0.23,0-0.34,0c-1.5,0.11-2.77,1.17-3.12,2.63c0,0-0.76,3.14-2.25,6.15
		c-0.74,1.5-1.68,2.92-2.56,3.81c-0.87,0.87-1.5,1.14-2.14,1.14c-4.8,0-7.2-4.91-7.2-4.91c-0.7-1.45-2.29-2.23-3.85-1.86
		c-1.57,0.35-2.68,1.74-2.68,3.34v24.02c0,0.01,0,0.03,0,0.04c-2.14,2.84-3.43,6.35-3.43,10.26v17.16h-1.72
		c-6.64,0-12.01,5.38-12.01,12.01c0,6.64,5.38,12.01,12.01,12.01c0.51,0,1.07-0.03,1.64-0.07c0.23,0,0.43,0.07,0.67,0.07h2.84
		c13.24,0,24.02-10.78,24.02-24.02V552.3c0-5.74,4.6-10.39,10.3-10.54h8.18l7.8,15.62l-3.79,1.9c-0.01,0.01-0.03,0.01-0.05,0.03
		c-2.57,1.09-5.17,4.32-6.03,5.72c-1.54,1.89-3.1,1.89-4.02,1.89c-0.97,0-1.15-0.94-1.18-1.13c-0.03-0.09-0.13-0.98,0.55-1.18
		c0.54-0.16,0.87-0.7,0.8-1.26c-0.09-0.56-0.58-0.98-1.14-0.98c-2.37,0-4.54,1.89-4.54,3.98c0,2.33,1.68,6.29,8,6.29
		c2.02,0,3.98-0.39,5.72-1.03v2.87c-1.01,1.03-5.12,5.03-13.73,5.03c-1.23-0.01-2.39,0.63-3.02,1.7c-0.62,1.07-0.62,2.39,0,3.46
		c0.63,1.07,1.78,1.72,3.02,1.7c12.56,0,19.73-8.04,19.73-8.04c0.55-0.62,0.86-1.42,0.86-2.25v-11.61l4.97-2.48
		c1.69-0.84,2.37-2.91,1.53-4.61l-9.93-19.85v-19.79c0-1.6-1.11-2.99-2.68-3.34c-1.55-0.36-3.15,0.42-3.85,1.86
		c0,0-2.4,4.91-7.2,4.91c-0.64,0-1.27-0.27-2.14-1.14c-0.88-0.88-1.82-2.31-2.56-3.81c-1.49-3.02-2.25-6.15-2.25-6.15
		C646.39,508.58,645.08,507.5,643.53,507.45z M643.41,520.09c0.88,1.65,1.85,3.35,3.31,4.8c1.7,1.7,4.12,3.15,6.98,3.15
		c2.8,0,4.97-0.88,6.86-2.01v8.87h-27.19c-2.56,0-4.96,0.55-7.13,1.49v-10.36c1.89,1.13,4.06,2.01,6.86,2.01
		c2.87,0,5.28-1.45,6.98-3.15C641.56,523.44,642.53,521.74,643.41,520.09z M657.14,548.63c-1.89,0-3.43,1.54-3.43,3.43
		c0,1.89,1.54,3.43,3.43,3.43c1.89,0,3.43-1.54,3.43-3.43C660.57,550.17,659.03,548.63,657.14,548.63z"/>
</g>
<g>
	<path class="st0" d="M586.09,297.41c0-5.32,4.31-9.64,9.64-9.64h91.55c5.32,0,9.64,4.31,9.64,9.64v144.55
		c0,5.32-4.31,9.64-9.64,9.64h-91.55c-5.32,0-9.64-4.31-9.64-9.64V297.41z"/>
	<g>
		<circle cx="662.88" cy="428.37" r="7.02"/>
		<circle cx="671.26" cy="415.93" r="7.02"/>
		<circle cx="679.63" cy="428.37" r="7.02"/>
		<rect x="661.77" y="427.56" width="18.97" height="1.62"/>
		<path d="M674.92,440.96c-1.87-3.25-2.86-6.93-2.86-10.68v-9.91h-1.62v9.93c0,3.74-0.99,7.42-2.86,10.66H674.92L674.92,440.96z"/>
	</g>
	<path d="M612.05,327.6c4.7,0,8.44-4.28,8.44-11.62c0-8.61-3.54-16.64-10.05-16.64c-4.94,0-8.53,4.33-8.53,11.66
		C601.91,319.45,605.17,327.6,612.05,327.6z M623.99,334.77c-6.14,0-10.05-1.94-13.18-5.35c-7.66-0.29-13.06-7.04-13.06-15.9
		c0-9.31,5.89-15.98,13.51-15.98c7.58,0,13.39,6.92,13.39,15.98c0,7.62-3.91,13.47-9.56,15.28c2.84,2.97,6.1,4.78,9.89,5.07v0.91
		H623.99z"/>
	<path d="M646.46,333.29c-1.47,0.05-2.73,1.01-3.18,2.42c0,0-0.45,1.32-1.28,2.6c-0.82,1.27-1.66,1.91-2.34,1.91
		c-3.03,0-4-1.85-4-1.85c-0.82-1.3-2.41-1.89-3.88-1.46c-1.49,0.42-2.5,1.77-2.5,3.31v16.34c-9.42,4.16-16.14,13.3-18.44,25.91
		l-1.18,6.42c0.2,0,0.38-0.05,0.58-0.05c8.58,0,15.57,6.99,15.57,15.57c0,1.92-1.55,3.46-3.46,3.46c-1.92,0-3.46-1.54-3.46-3.46
		c0-4.77-3.89-8.65-8.65-8.65c-4.16,0-7.65,2.96-8.47,6.87c0,0.08-0.01,0.15-0.01,0.22c-0.08,0.39-0.11,0.78-0.12,1.19
		c-0.03,2.7,0.84,5.37,2.55,7.57c2.3,2.97,5.77,4.74,9.3,4.74h8.87c11.45,0,20.76-9.31,20.76-20.76v-17.3
		c0-8.88,6.73-16.22,15.35-17.19l10.98,19.19l-3.66,1.82c-1.16,0.58-1.91,1.78-1.91,3.1v10.92c-3.58,0.43-10.54,1.65-16.29,7.39
		c-0.91,0.87-1.27,2.16-0.95,3.37c0.31,1.22,1.26,2.16,2.47,2.47c1.2,0.32,2.5-0.04,3.37-0.95c4.66-4.66,15.12-5.92,15.12-5.92
		c1.8-0.14,3.19-1.64,3.19-3.45v-11.71l5.01-2.5c0.84-0.42,1.49-1.18,1.76-2.1c0.28-0.91,0.16-1.89-0.3-2.72l-13.39-23.42v-16.38
		c0-1.54-1.01-2.89-2.5-3.31c-1.47-0.43-3.05,0.16-3.88,1.46c0,0-0.97,1.85-4,1.85c-0.68,0-1.51-0.64-2.34-1.91
		c-0.84-1.27-1.28-2.6-1.28-2.6C649.41,334.22,648.02,333.24,646.46,333.29z M646.59,343.41c1.54,1.85,3.66,3.72,6.92,3.72
		c1.51,0,2.28-0.77,3.46-1.19v8.11h-15.53c-1.8,0-3.54,0.16-5.23,0.43v-8.54c1.18,0.42,1.95,1.19,3.46,1.19
		C642.92,347.13,645.05,345.27,646.59,343.41z M656.97,371.35c-1.91,0-3.46,1.55-3.46,3.46c0,1.91,1.55,3.46,3.46,3.46
		s3.46-1.55,3.46-3.46C660.43,372.91,658.87,371.35,656.97,371.35z"/>
</g>
<g>
	<path class="st0" d="M586.09,118.34c0-5.32,4.31-9.64,9.64-9.64h91.55c5.32,0,9.64,4.31,9.64,9.64v144.55
		c0,5.32-4.31,9.64-9.64,9.64h-91.55c-5.32,0-9.64-4.31-9.64-9.64V118.34z"/>
	<g>
		<circle cx="662.88" cy="249.3" r="7.02"/>
		<circle cx="671.26" cy="236.86" r="7.02"/>
		<circle cx="679.63" cy="249.3" r="7.02"/>
		<rect x="661.77" y="248.49" width="18.97" height="1.62"/>
		<path d="M674.92,261.89c-1.87-3.25-2.86-6.93-2.86-10.68v-9.91h-1.62v9.93c0,3.74-0.99,7.42-2.86,10.66H674.92L674.92,261.89z"/>
	</g>
	<path d="M613.58,140.66c0,6.26-3.54,9.68-8.32,9.68c-4.2,0-7.5-2.47-7.5-5.73c0-1.81,0.95-2.68,2.31-2.68
		c1.52,0,2.06,1.19,2.22,3.05c0.33,2.76,1.28,3.67,3.5,3.67c2.43,0,3.79-2.27,3.79-7.13v-18.58c0-2.88-0.78-3.09-3.09-3.09v-0.91
		h9.72v0.91c-1.98,0-2.64,0.21-2.64,3.09V140.66z"/>
	<path d="M617.16,157.81c-1.17,0-2.26,0.61-2.88,1.6c-0.61,1-0.67,2.24-0.15,3.3l6.76,13.51c0.15,0.29,0.33,0.55,0.55,0.81
		c-2.65,2.96-4.29,6.84-4.29,11.19v16.89h-1.69c-6.53,0-11.82,5.29-11.82,11.82c0,6.53,5.29,11.82,11.82,11.82
		c0.5,0,1.06-0.03,1.61-0.07c0.22,0,0.42,0.07,0.66,0.07h2.8c13.04,0,23.65-10.61,23.65-23.65v-16.66c0-5.65,4.53-10.23,10.14-10.37
		h4.96l10.39,15.57l-3.35,1.68c-1.13,0.57-1.86,1.74-1.86,3.02v11.94c-0.99,1.02-5.04,4.95-13.51,4.95
		c-1.21-0.01-2.35,0.62-2.97,1.68c-0.61,1.06-0.61,2.35,0,3.4c0.62,1.06,1.76,1.69,2.97,1.68c12.37,0,19.43-7.92,19.43-7.92
		c0.54-0.61,0.84-1.4,0.84-2.22v-11.43l4.9-2.44c0.86-0.44,1.5-1.21,1.74-2.15c0.25-0.94,0.09-1.94-0.45-2.75l-12.42-18.66
		l5.87-11.73c0.53-1.06,0.46-2.3-0.15-3.3c-0.62-0.99-1.7-1.6-2.88-1.6H617.16z M622.62,164.57h39.75l-3.38,6.76H626L622.62,164.57z
		 M657.7,184.84c-1.86,0-3.38,1.52-3.38,3.38c0,1.86,1.52,3.38,3.38,3.38s3.38-1.52,3.38-3.38
		C661.08,186.36,659.56,184.84,657.7,184.84z"/>
</g>
</svg>
